<svg xmlns="http://www.w3.org/2000/svg" xmlns:xlink="http://www.w3.org/1999/xlink" style="display:none">
<symbol id='coin-dollar' viewBox='0 0 16 16'><?xml version="1.0" encoding="utf-8"?>
<!-- Generated by IcoMoon.io -->
<!DOCTYPE svg PUBLIC "-//W3C//DTD SVG 1.1//EN" "http://www.w3.org/Graphics/SVG/1.1/DTD/svg11.dtd">
<svg version="1.1" xmlns="http://www.w3.org/2000/svg" xmlns:xlink="http://www.w3.org/1999/xlink" width="16" height="16" viewBox="0 0 16 16">
<path d="M7.5 1c-4.142 0-7.5 3.358-7.5 7.5s3.358 7.5 7.5 7.5c4.142 0 7.5-3.358 7.5-7.5s-3.358-7.5-7.5-7.5zM7.5 14.5c-3.314 0-6-2.686-6-6s2.686-6 6-6c3.314 0 6 2.686 6 6s-2.686 6-6 6zM8 8v-2h2v-1h-2v-1h-1v1h-2v4h2v2h-2v1h2v1h1v-1h2l-0-4h-2zM7 8h-1v-2h1v2zM9 11h-1v-2h1v2z"></path>
</svg></symbol>
<symbol id='compass' viewBox='0 0 16 16'><?xml version="1.0" encoding="utf-8"?>
<!-- Generated by IcoMoon.io -->
<!DOCTYPE svg PUBLIC "-//W3C//DTD SVG 1.1//EN" "http://www.w3.org/Graphics/SVG/1.1/DTD/svg11.dtd">
<svg version="1.1" xmlns="http://www.w3.org/2000/svg" xmlns:xlink="http://www.w3.org/1999/xlink" width="16" height="16" viewBox="0 0 16 16">
<path d="M8.5 16c-0.036 0-0.072-0.004-0.108-0.012-0.229-0.051-0.392-0.254-0.392-0.488v-7.5h-7.5c-0.234 0-0.437-0.163-0.488-0.392s0.064-0.462 0.277-0.561l15-7c0.191-0.089 0.416-0.049 0.565 0.1s0.188 0.374 0.1 0.565l-7 15c-0.083 0.179-0.262 0.289-0.453 0.289zM2.754 7h5.746c0.276 0 0.5 0.224 0.5 0.5v5.746l5.465-11.712-11.712 5.465z"></path>
</svg></symbol>
<symbol id='office' viewBox='0 0 16 16'><?xml version="1.0" encoding="utf-8"?>
<!-- Generated by IcoMoon.io -->
<!DOCTYPE svg PUBLIC "-//W3C//DTD SVG 1.1//EN" "http://www.w3.org/Graphics/SVG/1.1/DTD/svg11.dtd">
<svg version="1.1" xmlns="http://www.w3.org/2000/svg" xmlns:xlink="http://www.w3.org/1999/xlink" width="16" height="16" viewBox="0 0 16 16">
<path d="M0 16h8v-16h-8v16zM5 2h2v2h-2v-2zM5 6h2v2h-2v-2zM5 10h2v2h-2v-2zM1 2h2v2h-2v-2zM1 6h2v2h-2v-2zM1 10h2v2h-2v-2zM9 5h7v1h-7zM9 16h2v-4h3v4h2v-9h-7z"></path>
</svg></symbol>
<symbol id='shuffle' viewBox='0 0 16 16'><?xml version="1.0" encoding="utf-8"?>
<!-- Generated by IcoMoon.io -->
<!DOCTYPE svg PUBLIC "-//W3C//DTD SVG 1.1//EN" "http://www.w3.org/Graphics/SVG/1.1/DTD/svg11.dtd">
<svg version="1.1" xmlns="http://www.w3.org/2000/svg" xmlns:xlink="http://www.w3.org/1999/xlink" width="16" height="16" viewBox="0 0 16 16">
<path d="M12 11h-1.586l-2.5-2.5 2.5-2.5h1.586v2.5l3.5-3.5-3.5-3.5v2.5h-2c-0.265 0-0.52 0.105-0.707 0.293l-2.793 2.793-2.793-2.793c-0.188-0.188-0.442-0.293-0.707-0.293h-3v2h2.586l2.5 2.5-2.5 2.5h-2.586v2h3c0.265 0 0.52-0.105 0.707-0.293l2.793-2.793 2.793 2.793c0.188 0.188 0.442 0.293 0.707 0.293h2v2.5l3.5-3.5-3.5-3.5v2.5z"></path>
</svg></symbol>
<symbol id='spinner2' viewBox='0 0 16 16'><?xml version="1.0" encoding="utf-8"?>
<!-- Generated by IcoMoon.io -->
<!DOCTYPE svg PUBLIC "-//W3C//DTD SVG 1.1//EN" "http://www.w3.org/Graphics/SVG/1.1/DTD/svg11.dtd">
<svg version="1.1" xmlns="http://www.w3.org/2000/svg" xmlns:xlink="http://www.w3.org/1999/xlink" width="16" height="16" viewBox="0 0 16 16">
<path d="M16 8c-0.020-1.045-0.247-2.086-0.665-3.038-0.417-0.953-1.023-1.817-1.766-2.53s-1.624-1.278-2.578-1.651c-0.953-0.374-1.978-0.552-2.991-0.531-1.013 0.020-2.021 0.24-2.943 0.646-0.923 0.405-1.758 0.992-2.449 1.712s-1.237 1.574-1.597 2.497c-0.361 0.923-0.533 1.914-0.512 2.895 0.020 0.981 0.234 1.955 0.627 2.847 0.392 0.892 0.961 1.7 1.658 2.368s1.523 1.195 2.416 1.543c0.892 0.348 1.851 0.514 2.799 0.493 0.949-0.020 1.89-0.227 2.751-0.608 0.862-0.379 1.642-0.929 2.287-1.604s1.154-1.472 1.488-2.335c0.204-0.523 0.342-1.069 0.415-1.622 0.019 0.001 0.039 0.002 0.059 0.002 0.552 0 1-0.448 1-1 0-0.028-0.001-0.056-0.004-0.083h0.004zM14.411 10.655c-0.367 0.831-0.898 1.584-1.55 2.206s-1.422 1.112-2.254 1.434c-0.832 0.323-1.723 0.476-2.608 0.454-0.884-0.020-1.759-0.215-2.56-0.57-0.801-0.354-1.526-0.867-2.125-1.495s-1.071-1.371-1.38-2.173c-0.31-0.801-0.457-1.66-0.435-2.512s0.208-1.694 0.551-2.464c0.342-0.77 0.836-1.468 1.441-2.044s1.321-1.029 2.092-1.326c0.771-0.298 1.596-0.438 2.416-0.416s1.629 0.202 2.368 0.532c0.74 0.329 1.41 0.805 1.963 1.387s0.988 1.27 1.272 2.011c0.285 0.74 0.418 1.532 0.397 2.32h0.004c-0.002 0.027-0.004 0.055-0.004 0.083 0 0.516 0.39 0.94 0.892 0.994-0.097 0.544-0.258 1.075-0.481 1.578z"></path>
</svg></symbol>
<symbol id='spoon-knife' viewBox='0 0 16 16'><?xml version="1.0" encoding="utf-8"?>
<!-- Generated by IcoMoon.io -->
<!DOCTYPE svg PUBLIC "-//W3C//DTD SVG 1.1//EN" "http://www.w3.org/Graphics/SVG/1.1/DTD/svg11.dtd">
<svg version="1.1" xmlns="http://www.w3.org/2000/svg" xmlns:xlink="http://www.w3.org/1999/xlink" width="16" height="16" viewBox="0 0 16 16">
<path d="M3.5 0c-1.657 0-3 1.567-3 3.5 0 1.655 0.985 3.042 2.308 3.406l-0.497 8.096c-0.034 0.549 0.389 0.998 0.939 0.998h0.5c0.55 0 0.972-0.449 0.939-0.998l-0.497-8.096c1.323-0.365 2.308-1.751 2.308-3.406 0-1.933-1.343-3.5-3-3.5zM13.583 0l-0.833 5h-0.625l-0.417-5h-0.417l-0.417 5h-0.625l-0.833-5h-0.417v6.5c0 0.276 0.224 0.5 0.5 0.5h1.302l-0.491 8.002c-0.034 0.549 0.389 0.998 0.939 0.998h0.5c0.55 0 0.972-0.449 0.939-0.998l-0.491-8.002h1.302c0.276 0 0.5-0.224 0.5-0.5v-6.5h-0.417z"></path>
</svg></symbol>
<symbol id='star-empty' viewBox='0 0 16 16'><?xml version="1.0" encoding="utf-8"?>
<!-- Generated by IcoMoon.io -->
<!DOCTYPE svg PUBLIC "-//W3C//DTD SVG 1.1//EN" "http://www.w3.org/Graphics/SVG/1.1/DTD/svg11.dtd">
<svg version="1.1" xmlns="http://www.w3.org/2000/svg" xmlns:xlink="http://www.w3.org/1999/xlink" width="16" height="16" viewBox="0 0 16 16">
<path d="M16 6.204l-5.528-0.803-2.472-5.009-2.472 5.009-5.528 0.803 4 3.899-0.944 5.505 4.944-2.599 4.944 2.599-0.944-5.505 4-3.899zM8 11.773l-3.492 1.836 0.667-3.888-2.825-2.753 3.904-0.567 1.746-3.537 1.746 3.537 3.904 0.567-2.825 2.753 0.667 3.888-3.492-1.836z"></path>
</svg></symbol>
<symbol id='star-full' viewBox='0 0 16 16'><?xml version="1.0" encoding="utf-8"?>
<!-- Generated by IcoMoon.io -->
<!DOCTYPE svg PUBLIC "-//W3C//DTD SVG 1.1//EN" "http://www.w3.org/Graphics/SVG/1.1/DTD/svg11.dtd">
<svg version="1.1" xmlns="http://www.w3.org/2000/svg" xmlns:xlink="http://www.w3.org/1999/xlink" width="16" height="16" viewBox="0 0 16 16">
<path d="M16 6.204l-5.528-0.803-2.472-5.009-2.472 5.009-5.528 0.803 4 3.899-0.944 5.505 4.944-2.599 4.944 2.599-0.944-5.505 4-3.899z"></path>
</svg></symbol>
<symbol id='star-half' viewBox='0 0 16 16'><?xml version="1.0" encoding="utf-8"?>
<!-- Generated by IcoMoon.io -->
<!DOCTYPE svg PUBLIC "-//W3C//DTD SVG 1.1//EN" "http://www.w3.org/Graphics/SVG/1.1/DTD/svg11.dtd">
<svg version="1.1" xmlns="http://www.w3.org/2000/svg" xmlns:xlink="http://www.w3.org/1999/xlink" width="16" height="16" viewBox="0 0 16 16">
<path d="M16 6.204l-5.528-0.803-2.472-5.009-2.472 5.009-5.528 0.803 4 3.899-0.944 5.505 4.944-2.599 4.944 2.599-0.944-5.505 4-3.899zM8 11.773l-0.015 0.008 0.015-8.918 1.746 3.537 3.904 0.567-2.825 2.753 0.667 3.888-3.492-1.836z"></path>
</svg></symbol>
</svg>
